<svg width="10" height="5" viewBox="0 0 10 5" fill="none" xmlns="http://www.w3.org/2000/svg">
<path d="M0.500301 4.76837e-07H9.50056C9.59168 0.000191212 9.681 0.0169754 9.7589 0.0485463C9.8368 0.0801172 9.90034 0.125279 9.94267 0.179171C9.98499 0.233063 10.0045 0.293644 9.99912 0.354393C9.99373 0.415143 9.96363 0.47376 9.91207 0.523935L5.41194 4.86501C5.22544 5.045 4.77642 5.045 4.58942 4.86501L0.0892894 0.523935C0.0372003 0.473865 0.00665413 0.415218 0.00096949 0.354367C-0.00471515 0.293517 0.0146792 0.23279 0.0570455 0.178783C0.0994117 0.124777 0.163129 0.0795579 0.241276 0.048038C0.319422 0.0165186 0.409008 -9.53674e-05 0.500301 4.76837e-07Z" fill="black"/>
</svg>
