<?xml version="1.0" encoding="UTF-8"?>
<!DOCTYPE svg PUBLIC "-//W3C//DTD SVG 1.1//EN" "http://www.w3.org/Graphics/SVG/1.1/DTD/svg11.dtd">
<svg xmlns="http://www.w3.org/2000/svg" xml:space="preserve" width="356px" height="291px" version="1.1" style="shape-rendering:geometricPrecision; text-rendering:geometricPrecision; image-rendering:optimizeQuality; fill-rule:evenodd; clip-rule:evenodd"
viewBox="0 0 238.12 194.25"
 xmlns:xlink="http://www.w3.org/1999/xlink"
>
 <defs>
  <style type="text/css">
   <![CDATA[
    .fil0 {fill:white;fill-rule:nonzero}
   ]]>
  </style>
 </defs>
 <g id="Layer_x0020_1">
  <path class="fil0" d="M55.74 171.76c1.98,2.11 5.28,2.21 7.38,0.24 2.11,-1.97 2.22,-5.28 0.24,-7.38l-7.62 7.14zm9.03 -113.23l3.55 3.84 -3.55 -3.84zm54.31 -19.84l0 -5.22 0 5.22zm48.04 15.67l-3.24 4.09 3.24 -4.09zm13.5 103.49c-1.67,2.35 -1.12,5.61 1.23,7.29 2.35,1.67 5.61,1.12 7.28,-1.23l-8.51 -6.06zm-117.26 6.77c-29.05,-30.99 -22.25,-77.12 4.96,-102.25l-7.09 -7.67c-30.82,28.46 -39.09,81.22 -5.49,117.06l7.62 -7.14zm4.96 -102.25c13.46,-12.44 32.17,-18.46 50.76,-18.46l0 -10.44c-20.68,0 -42.09,6.68 -57.85,21.23l7.09 7.67zm50.76 -18.46c16.67,0 32.28,4.62 44.8,14.54l6.49 -8.19c-14.69,-11.63 -32.7,-16.79 -51.29,-16.79l0 10.44zm44.8 14.54c28.26,22.39 41.33,64.84 16.74,99.4l8.51 6.06c28.54,-40.11 12.81,-88.63 -18.76,-113.65l-6.49 8.19z"/>
  <path class="fil0" d="M30.29 193.59c0.79,0.84 2.11,0.89 2.95,0.1 0.84,-0.79 0.89,-2.11 0.1,-2.95l-3.05 2.85zm9.18 -162.38l1.42 1.54 -1.42 -1.54zm79.63 -29.12l0 -2.09 0 2.09zm70.44 22.99l1.3 -1.64 -1.3 1.64zm24.33 155.14c-0.67,0.94 -0.45,2.25 0.49,2.92 0.94,0.66 2.25,0.44 2.91,-0.5l-3.4 -2.42zm-180.53 10.52c-45.03,-48.09 -34.28,-119.33 7.55,-157.99l-2.84 -3.07c-43.26,39.99 -54.61,113.89 -7.76,163.91l3.05 -2.85zm7.55 -157.99c20.96,-19.38 49.84,-28.57 78.21,-28.57l0 -4.18c-29.21,0 -59.17,9.45 -81.05,29.68l2.84 3.07zm78.21 -28.57c25.46,0 49.63,7.06 69.14,22.54l2.6 -3.28c-20.38,-16.15 -45.51,-23.44 -71.74,-23.44l0 4.18zm69.14 22.54c43.21,34.26 63.79,99.82 25.63,153.5l3.4 2.42c39.74,-55.9 18.09,-123.88 -26.43,-159.2l-2.6 3.28z"/>
 </g>
</svg>
