<svg width="99" height="138" viewBox="0 0 99 138" fill="none" xmlns="http://www.w3.org/2000/svg">
<path d="M44.91 51.7751C45.7444 51.7645 46.5749 51.6602 47.3859 51.4639C53.4741 48.9542 58.8858 50.3004 64.2636 53.7639C70.8659 58.0323 77.7117 61.922 84.4154 66.0213C95.2388 72.6371 99.5614 82.5609 98.5061 94.8995C97.992 100.92 96.8015 106.886 95.9491 112.887C95.5838 115.464 93.9536 116.418 91.6536 115.883C89.3536 115.349 88.508 113.583 89.2589 111.223C91.4388 104.475 92.3763 97.3884 92.0256 90.3064C91.613 82.0603 88.0142 75.6745 80.9722 71.3654C73.9303 67.0563 66.7665 62.727 59.596 58.5126C53.3591 54.8733 49.3747 56.1788 46.2765 62.6661C45.6 64.0799 45.1874 65.6628 44.2945 66.9143C43.6586 67.814 42.2651 68.9437 41.4939 68.7948C40.8883 68.5792 40.3346 68.2391 39.8686 67.7963C39.4025 67.3536 39.0344 66.818 38.7881 66.2243C38.2401 64.824 38.2942 63.1396 38.2942 61.577C38.2942 47.3713 38.2942 33.2332 38.2942 19.0613C38.3134 17.029 38.2298 14.9971 38.044 12.9732C37.6787 9.44881 35.2163 7.01354 31.9964 6.8106C28.4585 6.58737 25.5497 8.56941 24.8868 12.1547C24.4366 14.9273 24.2329 17.7343 24.278 20.5428C24.1427 42.3655 24.19 64.1814 23.8788 85.9973C23.818 90.0561 22.58 94.1554 21.5247 98.1736C21.2136 99.3709 19.8336 100.467 18.6836 101.204C18.2557 101.405 17.7849 101.497 17.3129 101.472C16.8409 101.447 16.3824 101.306 15.9778 101.062C15.6603 100.71 15.4329 100.286 15.3151 99.8262C15.1973 99.3667 15.1925 98.8856 15.3013 98.4239C19.2654 87.5193 18.0071 76.2224 17.9463 65.0269C17.9463 62.8487 18.2845 60.2917 14.9969 59.8994C11.574 59.4597 8.84108 60.8532 8.39462 64.0867C7.97521 67.1375 8.29315 70.3236 8.50285 73.4286C9.05078 81.6003 10.1805 89.7584 10.2414 97.9301C10.3631 113.252 17.0872 124.312 30.312 131.679C31.1251 132.051 31.8704 132.556 32.5173 133.174C33.1803 134.078 33.7599 135.04 34.249 136.049C32.9367 136.725 31.4484 138.227 30.3593 137.97C27.8449 137.429 25.4743 136.359 23.4053 134.831C9.92342 124.359 2.93557 110.742 3.78791 93.391C4.16673 85.7605 3.97732 78.1977 1.35941 70.7836C-1.62379 62.3482 6.58846 51.7345 15.3284 53.3715C16.0822 53.3973 16.8363 53.3314 17.5742 53.1753C17.6351 51.8968 17.7298 50.7062 17.7366 49.5157C17.7366 38.1511 17.7366 26.7933 17.838 15.4355C17.9192 8.29882 21.4571 3.10359 27.1597 1.22979C36.0619 -1.68576 44.5448 4.61211 44.7477 14.6576C44.9845 25.6771 44.8627 36.7035 44.8897 47.723C44.91 48.9271 44.91 50.1515 44.91 51.7751Z" fill="white"/>
</svg>
