<svg width="138" height="200" viewBox="0 0 138 200" fill="none" xmlns="http://www.w3.org/2000/svg">
<path d="M78.0409 104.568C78.9639 104.557 79.8826 104.442 80.7798 104.226C87.5146 101.463 93.501 102.945 99.45 106.758C106.754 111.456 114.326 115.738 121.742 120.25C133.715 127.532 138.497 138.456 137.329 152.038C136.761 158.665 135.444 165.232 134.501 171.838C134.097 174.674 132.293 175.725 129.749 175.136C127.205 174.548 126.269 172.604 127.1 170.006C129.511 162.578 130.549 154.778 130.161 146.982C129.704 137.905 125.723 130.876 117.933 126.133C110.143 121.389 102.219 116.624 94.2867 111.985C87.3874 107.979 82.9798 109.416 79.5525 116.557C78.8042 118.113 78.3478 119.855 77.36 121.233C76.6566 122.223 75.1151 123.467 74.262 123.303C73.5921 123.066 72.9795 122.691 72.4641 122.204C71.9485 121.717 71.5413 121.127 71.2688 120.474C70.6626 118.932 70.7224 117.078 70.7224 115.358C70.7224 99.721 70.7224 84.1584 70.7224 68.5586C70.7437 66.3215 70.6512 64.0849 70.4457 61.8571C70.0416 57.9776 67.3176 55.2969 63.7558 55.0735C59.8421 54.8278 56.6244 57.0096 55.8911 60.9561C55.3931 64.0081 55.1677 67.0979 55.2176 70.1893C55.0679 94.2108 55.1203 118.225 54.776 142.239C54.7088 146.707 53.3393 151.219 52.1719 155.642C51.8277 156.96 50.3012 158.166 49.029 158.978C48.5557 159.199 48.0349 159.3 47.5128 159.273C46.9906 159.245 46.4834 159.09 46.0359 158.821C45.6846 158.434 45.4331 157.967 45.3028 157.461C45.1725 156.955 45.1672 156.426 45.2875 155.917C49.6726 143.914 48.2807 131.479 48.2134 119.155C48.2134 116.758 48.5876 113.943 44.9508 113.511C41.1643 113.027 38.1412 114.561 37.6473 118.121C37.1833 121.479 37.535 124.986 37.767 128.404C38.3731 137.399 39.6228 146.379 39.6902 155.374C39.8248 172.24 47.2631 184.414 61.8925 192.523C62.7919 192.933 63.6164 193.489 64.332 194.169C65.0654 195.164 65.7066 196.223 66.2476 197.333C64.7959 198.078 63.1496 199.731 61.9448 199.448C59.1633 198.853 56.541 197.675 54.2522 195.993C39.3385 184.466 31.6084 169.477 32.5513 150.377C32.9704 141.978 32.7608 133.653 29.8649 125.492C26.5648 116.207 35.6493 104.524 45.3175 106.326C46.1514 106.354 46.9855 106.282 47.8018 106.11C47.8692 104.702 47.9739 103.392 47.9815 102.081C47.9815 89.5718 47.9815 77.0696 48.0936 64.5675C48.1835 56.7117 52.0971 50.993 58.4054 48.9304C68.2531 45.7211 77.6369 52.6535 77.8614 63.7112C78.1233 75.841 77.9886 87.9783 78.0184 100.108C78.0409 101.434 78.0409 102.781 78.0409 104.568Z" fill="white"/>
<path d="M30.3307 92.4457C31.3904 93.575 33.1565 93.6285 34.2805 92.5742C35.4097 91.5199 35.4686 89.7483 34.4089 88.6244L30.3307 92.4457ZM97.1665 85.0011C96.2727 86.2588 96.5671 88.0036 97.8248 88.9027C99.0825 89.7965 100.827 89.5022 101.721 88.2444L97.1665 85.0011ZM34.4089 88.6244C18.8613 72.0386 22.5007 47.3497 37.0635 33.9002L33.2689 29.7952C16.774 45.027 12.3479 73.2642 30.3307 92.4457L34.4089 88.6244ZM37.0635 33.9002C44.2673 27.2423 54.2809 24.0204 64.2303 24.0204V18.4329C53.1623 18.4329 41.7037 22.008 33.2689 29.7952L37.0635 33.9002ZM64.2303 24.0204C73.1521 24.0204 81.5066 26.493 88.2073 31.8022L91.6807 27.4189C83.8186 21.1945 74.1797 18.4329 64.2303 18.4329V24.0204ZM88.2073 31.8022C103.332 43.7853 110.327 66.5046 97.1665 85.0011L101.721 88.2444C116.996 66.7775 108.577 40.8096 91.6807 27.4189L88.2073 31.8022Z" fill="white"/>
<path d="M16.7098 104.129C17.1326 104.579 17.8391 104.605 18.2887 104.183C18.7382 103.76 18.765 103.053 18.3422 102.604L16.7098 104.129ZM114.962 96.9735C114.603 97.4766 114.721 98.1777 115.224 98.5363C115.727 98.8895 116.428 98.7718 116.782 98.2687L114.962 96.9735ZM18.3422 102.604C-5.75791 76.866 -0.00450069 38.7383 22.3829 18.0475L20.863 16.4044C-2.28981 37.8071 -8.36433 77.3584 16.7098 104.129L18.3422 102.604ZM22.3829 18.0475C33.6007 7.67529 49.0573 2.75679 64.241 2.75679V0.519653C48.6078 0.519653 32.5732 5.5773 20.863 16.4044L22.3829 18.0475ZM64.241 2.75679C77.8672 2.75679 90.803 6.53531 101.245 14.8202L102.636 13.0648C91.7289 4.42127 78.2793 0.519653 64.241 0.519653V2.75679ZM101.245 14.8202C124.371 33.1562 135.385 68.2439 114.962 96.9735L116.782 98.2687C138.051 68.351 126.463 31.968 102.636 13.0648L101.245 14.8202Z" fill="white"/>
</svg>
