<svg xmlns="http://www.w3.org/2000/svg" width="35" height="40" viewBox="0 0 35 40" fill="none">
  <path d="M14.9016 5.16141C15.0486 0.837619 10.1586 0.162177 8.41406 1.0219C8.86865 6.00832 12.6732 6.1181 14.9016 5.16141Z" fill="currentColor"/>
  <path d="M34.0098 15.2929C34.0952 15.5101 34.1392 15.6224 34.1537 15.6591C34.1336 15.6084 34.0757 15.4595 34.0098 15.2929Z" fill="currentColor"/>
  <path d="M33.9666 15.1794C33.9813 15.2172 33.9959 15.2551 34.0105 15.2929C33.9965 15.2557 33.9831 15.2221 33.966 15.1781C33.6254 14.3086 33.7957 14.7436 33.9653 15.1776C32.8787 12.4006 30.7076 10.1112 27.8684 9.11413C24.7864 8.03288 21.5738 8.64672 18.5234 9.48879C18.4655 7.82236 18.6064 6.15109 18.8432 4.5011C18.9774 3.56997 19.6199 1.64362 18.026 1.57772C16.7032 1.52283 16.6995 3.29355 16.5707 4.19663C16.3218 5.92896 16.1748 7.68452 16.2224 9.43571C15.4895 9.31371 14.7659 9.04091 14.036 8.88958C12.9475 8.66504 11.8388 8.52472 10.7264 8.52344C8.58281 8.52344 6.46729 9.09151 4.70328 10.3321C1.27774 12.7423 -0.056178 16.9478 0.00180531 20.9883C0.0652175 25.3633 1.54677 29.5412 4.03938 33.1097C5.13955 34.6852 6.4044 36.196 7.96777 37.3327C9.4871 38.4371 11.184 38.9546 13.0262 39.2181C13.8084 39.3311 14.6048 39.3341 15.3845 39.2066C16.0655 39.0956 16.7031 38.8082 17.3786 38.694C17.8887 38.608 18.6081 39.0095 19.1017 39.1193C19.9432 39.3084 20.809 39.3475 21.6663 39.2499C24.8033 38.8923 27.2886 37.4773 29.3528 35.1048C33.8927 29.8873 36.5984 21.9 33.9666 15.1794ZM9.3792 19.3427C7.76833 19.3427 6.46314 18.0375 6.46314 16.4267C6.46314 14.8158 7.76833 13.5106 9.3792 13.5106C10.9895 13.5106 12.2953 14.8158 12.2953 16.4267C12.2953 18.0375 10.9895 19.3427 9.3792 19.3427Z" fill="currentColor"/>
</svg>