<svg xmlns="http://www.w3.org/2000/svg" width="40" height="44" viewBox="0 0 40 44" fill="none">
  <path d="M34.9995 9.22371L29.1671 8.11232C27.1602 7.72995 25.7085 5.97527 25.7085 3.93235V1.52191C25.7085 0.900391 25.2047 0.396416 24.583 0.396416H15.4169C14.7953 0.396416 14.2914 0.90024 14.2914 1.52191V3.93235C14.2914 5.97527 12.8395 7.72995 10.8328 8.11232L5.00034 9.22371C1.92515 9.80965 -0.219558 12.6118 0.0179427 15.7333L2.05921 42.5635C2.1038 43.1502 2.59291 43.6036 3.18141 43.6036H8.03845L9.00632 37.3124L5.21292 20.7177C5.05139 20.0112 5.49321 19.3074 6.19955 19.146C6.90725 18.9836 7.60984 19.4265 7.77123 20.1327L11.6763 37.216L10.6937 43.6034H29.3064L28.3239 37.216L32.2288 20.1328C32.3903 19.4263 33.0944 18.9839 33.8003 19.146C34.5068 19.3074 34.9488 20.0112 34.7871 20.7175L30.9939 37.3122L31.9616 43.6034H36.8186C37.4071 43.6034 37.8962 43.1501 37.9408 42.5634L39.9821 15.7332C40.2194 12.6118 38.0747 9.80965 34.9995 9.22371ZM21.0498 33.11C21.0498 33.6898 20.5799 34.1597 20.0001 34.1597C19.4203 34.1597 18.9504 33.6898 18.9504 33.11V13.6018C18.9504 13.0221 19.4203 12.5522 20.0001 12.5522C20.5799 12.5522 21.0498 13.0221 21.0498 13.6018V33.11Z" fill="currentColor"/>
</svg>