<svg xmlns="http://www.w3.org/2000/svg" width="40" height="48" viewBox="0 0 40 48" fill="none">
  <path d="M34.9996 32.2261L29.1672 31.1147C27.5133 30.7995 26.2386 29.5514 25.8406 27.9791C23.9929 29.6225 21.9315 30.4949 19.7979 30.4949C17.7877 30.4949 15.8416 29.7199 14.0777 28.2559C13.6066 29.6961 12.3881 30.8183 10.8328 31.1147L5.00035 32.2261C1.92516 32.8121 -0.219487 35.6141 0.0179314 38.7357L0.570729 46.0013C0.651262 47.06 1.53375 47.8777 2.5953 47.8777H37.4047C38.4663 47.8777 39.3487 47.0598 39.4293 46.0013L39.9821 38.7357C40.2195 35.6142 38.0748 32.8121 34.9996 32.2261ZM17.2882 37.5996C17.1346 37.6902 16.966 37.7333 16.7996 37.7333C16.4691 37.7333 16.1475 37.5634 15.9677 37.2583C15.7912 36.9592 15.4794 36.7642 15.1332 36.7369L7.66918 36.1495C7.13808 36.1077 6.74152 35.6435 6.78332 35.1124C6.82511 34.5813 7.28998 34.1849 7.82044 34.2265L15.2844 34.8139C16.2574 34.8906 17.1341 35.4382 17.6295 36.2791C17.8999 36.738 17.7472 37.3292 17.2882 37.5996ZM32.3308 36.1493L24.867 36.7367C24.5208 36.764 24.2086 36.959 24.0323 37.2582C23.8525 37.5632 23.5307 37.7331 23.2004 37.7331C23.034 37.7331 22.8654 37.6901 22.7117 37.5994C22.2528 37.329 22.1 36.7378 22.3705 36.2789C22.8659 35.438 23.7428 34.8902 24.7157 34.8137L32.1796 34.2264C32.7108 34.1844 33.1749 34.5811 33.2167 35.1122C33.2583 35.6433 32.8618 36.1077 32.3308 36.1493Z" fill="currentColor"/>
  <path d="M19.7979 28.0837C25.3592 28.0837 29.8676 19.292 29.8676 12.4716C29.8676 5.65125 25.3594 0.122305 19.7979 0.122305C14.2367 0.122305 9.7283 5.65125 9.7283 12.4716C9.7283 19.292 14.2367 28.0837 19.7979 28.0837ZM12.7823 12.9755C12.1165 12.9755 11.5767 12.4358 11.5767 11.77C11.5767 11.1042 12.1165 10.5644 12.7823 10.5644C13.4481 10.5644 13.9879 11.1042 13.9879 11.77C13.9879 12.4358 13.4481 12.9755 12.7823 12.9755ZM13.6987 9.75054C13.55 9.75054 13.3992 9.72289 13.2528 9.66454C12.6342 9.41812 12.3325 8.7168 12.5793 8.09842C13.9382 4.68791 16.6368 2.65177 19.7981 2.65177C20.4641 2.65177 21.0037 3.19139 21.0037 3.85735C21.0037 4.52331 20.4641 5.06293 19.7981 5.06293C17.6285 5.06293 15.8137 6.49451 14.8191 8.99087C14.6307 9.46297 14.1775 9.75054 13.6987 9.75054Z" fill="currentColor"/>
</svg>