<svg xmlns="http://www.w3.org/2000/svg" width="38" height="44" viewBox="0 0 38 44" fill="none">
  <path d="M21.8188 0.0392964C12.3235 -0.544992 4.32859 5.42835 4.5094 15.1608L4.50218 16.0416L0.376924 23.3263C0.155034 23.7188 0.135268 24.194 0.324245 24.6047C0.511674 25.0155 0.885846 25.3105 1.32817 25.3969L3.87759 26.1005L4.67784 33.826C4.69984 34.5698 5.03078 35.2699 5.5917 35.7604C6.1533 36.248 6.89502 36.4802 7.63452 36.3974L9.67072 36.56C10.0676 36.5154 10.466 36.642 10.7632 36.9085C11.0612 37.1758 11.2311 37.5572 11.2311 37.957V44H28.4546C28.4546 44 28.4546 41.0836 28.4546 39.9092C28.4546 38.7348 28.8595 36.0498 29.6298 34.8212C32.4217 30.3569 36.9672 27.9817 37.7338 18.8248C38.5004 9.66928 33.036 0.730491 21.8188 0.0392964ZM33.6914 17.0659C32.8464 17.0659 31.9641 17.0659 31.9641 17.0659C31.5439 17.0652 31.2026 16.7241 31.2018 16.3037V15.2398C31.2018 14.8503 30.8848 14.5333 30.4953 14.5333C30.105 14.5333 29.788 14.8503 29.788 15.2398V16.3037C29.7887 17.506 30.7625 18.4792 31.9641 18.4798C31.9662 18.4798 32.6846 18.4798 33.4461 18.4798C32.6341 21.8311 30.3972 23.0934 28.1545 21.8267C26.693 21 26.8174 19.7662 26.1358 18.7426V15.004C26.1358 14.6145 25.8187 14.2974 25.4285 14.2974C25.0382 14.2974 24.7219 14.6145 24.7219 15.004V17.634C23.7071 17.1992 22.0911 16.9202 19.3929 16.9202C18.6622 16.9202 17.9878 16.9143 17.3589 16.9025V14.0624C17.3589 13.6714 17.0418 13.3551 16.6516 13.3551C16.2613 13.3551 15.945 13.6714 15.945 14.0624V16.8638C10.2272 16.6412 9.38669 15.7223 8.93715 13.4115C8.91885 13.2738 8.9057 13.1377 8.89393 13.0022H11.8952C13.3186 13.0022 14.4726 11.8482 14.4726 10.4256V9.31264C14.4726 8.92239 14.1556 8.60606 13.7652 8.60606C13.375 8.60606 13.0587 8.92239 13.0587 9.31264V10.4256C13.0573 11.0677 12.5374 11.5877 11.8952 11.589H8.89023C9.06305 9.62236 9.99221 8.01446 11.4361 6.54416C12.5396 5.41872 13.9007 4.54672 15.4449 3.95435C15.4449 4.86821 15.4449 5.75998 15.4449 6.11808C15.4492 6.72437 15.6617 7.34235 16.0702 7.86794C16.2752 8.12868 16.5359 8.36449 16.8544 8.53576C17.1707 8.7085 17.5477 8.81248 17.9498 8.81179C19.0853 8.81179 20.2218 8.81179 20.2218 8.81179C20.612 8.81179 20.9284 8.49477 20.9284 8.10522C20.9284 7.71497 20.612 7.39795 20.2218 7.39795C20.2218 7.39795 19.0853 7.39795 17.9498 7.39795C17.7842 7.39718 17.6517 7.35911 17.5258 7.29173C17.3391 7.19213 17.1648 7.0084 17.0418 6.78281C16.9195 6.56023 16.8565 6.2995 16.8587 6.118C16.8587 5.70137 16.8587 4.5621 16.8587 3.50619C18.031 3.20308 19.2823 3.04272 20.5908 3.04272C20.9232 3.04272 21.26 3.05295 21.5969 3.07418C24.5622 3.25654 27.1293 4.18638 29.1399 5.78396V11.9996C29.1399 12.3907 29.457 12.7076 29.8473 12.7076C30.2375 12.7076 30.5538 12.3906 30.5538 11.9996V7.11754C30.5912 7.15921 30.63 7.19952 30.6673 7.24197C32.6926 9.58574 33.7843 12.8198 33.7557 16.2502C33.7419 16.5337 33.7192 16.803 33.6914 17.0659Z" fill="currentColor"/>
  <path d="M24.721 7.4054C24.3308 7.4054 24.0137 7.72242 24.0137 8.11266V10.3971C24.013 10.8906 23.6133 11.2933 23.1182 11.2941H20.5972C20.207 11.2941 19.8906 11.6096 19.8906 12C19.8906 12.391 20.207 12.7079 20.5972 12.7079H23.1182C24.3944 12.7058 25.4276 11.6733 25.4276 10.3971V8.11266C25.4276 7.72242 25.1112 7.4054 24.721 7.4054Z" fill="currentColor"/>
</svg>