<svg width="24" height="20" viewBox="0 0 24 20" fill="none" xmlns="http://www.w3.org/2000/svg">
<path d="M20.4172 19.5H21.9172C22.7422 19.5 23.4172 18.825 23.4172 18V7.75C23.4172 6.925 22.7422 6.25 21.9172 6.25H20.4172C19.5922 6.25 18.9172 6.925 18.9172 7.75V18C18.9172 18.825 19.5922 19.5 20.4172 19.5Z" fill="currentColor"/>
<circle cx="21.1672" cy="1.50006" r="1.25" fill="currentColor"/>
<path d="M2.08276 19.7499H3.58276C4.40776 19.7499 5.08276 19.0749 5.08276 18.2499V16.7499C5.08276 15.9249 4.40776 15.2499 3.58276 15.2499H2.08276C1.25776 15.2499 0.582764 15.9249 0.582764 16.7499V18.2499C0.582764 19.0749 1.25776 19.7499 2.08276 19.7499Z" fill="currentColor"/>
<circle cx="2.83276" cy="10.5" r="1.25" fill="currentColor"/>
<path d="M14.4172 19.5H15.9172C16.7422 19.5 17.4172 18.825 17.4172 18V12.75C17.4172 11.925 16.7422 11.25 15.9172 11.25H14.4172C13.5922 11.25 12.9172 11.925 12.9172 12.75V18C12.9172 18.825 13.5922 19.5 14.4172 19.5Z" fill="currentColor"/>
<circle cx="15.1672" cy="6.5" r="1.25" fill="currentColor"/>
<path d="M8.41724 19.25H9.91724C10.7422 19.25 11.4172 18.575 11.4172 17.75V8.75C11.4172 7.925 10.7422 7.25 9.91724 7.25H8.41724C7.59224 7.25 6.91724 7.925 6.91724 8.75V17.75C6.91724 18.575 7.59224 19.25 8.41724 19.25Z" fill="currentColor"/>
<circle cx="9.16724" cy="2.5" r="1.25" fill="currentColor"/>
<path d="M3 10.4062L9.5 2.0625L15 6.40625L21.5 1.5" stroke="currentColor" stroke-width="0.5" stroke-linecap="round"/>
</svg>
