<svg xmlns="http://www.w3.org/2000/svg" width="47" height="40" viewBox="0 0 47 40" fill="none">
  <path d="M32.9721 24.5226C31.7778 22.6658 31.1191 20.2203 31.1191 17.6348C31.1191 15.0498 31.7778 12.6037 32.9721 10.7476C33.5747 9.81298 34.2793 9.07395 35.055 8.5493C34.6574 8.50101 34.2365 8.44332 33.7968 8.37552C31.6858 8.05202 29.1328 7.51173 26.4458 6.73853C24.4299 6.16013 22.3346 5.45079 20.2751 4.61275C17.2591 3.38726 14.3235 1.88129 11.7993 0.162456C9.18172 -0.563429 5.55533 1.18349 3.03826 4.5971C0.309127 8.29825 -0.160874 12.6644 1.8074 14.8174C3.62525 16.0546 5.49452 17.1614 7.38185 18.1592C10.2536 19.6754 13.1706 20.935 16.03 21.9851C20.3205 23.5597 24.4777 24.6644 28.1968 25.3955C30.0567 25.7628 31.8068 26.0332 33.4306 26.218C33.8072 26.2617 34.1766 26.299 34.5406 26.3327C33.9668 25.8517 33.4382 25.246 32.9721 24.5226Z" fill="currentColor"/>
  <path d="M36.6623 23.2192C35.1937 22.3906 34.1444 20.2033 34.1444 17.6347C34.1444 14.3544 35.8563 11.6962 37.9672 11.6962C40.0798 11.6962 41.7923 14.3544 41.7923 17.6347C41.7923 19.6217 41.1632 21.3779 40.199 22.4569C40.8499 22.8388 41.4619 23.3183 42.0309 23.8654C43.0489 22.2636 43.6781 20.0638 43.6781 17.6348C43.6781 12.7369 41.1212 8.76685 37.9672 8.76685C34.8141 8.76685 32.2587 12.7369 32.2587 17.6348C32.2587 22.2083 34.4873 25.9726 37.3498 26.452C37.4529 24.8453 37.1285 23.7844 36.6623 23.2192Z" fill="currentColor"/>
  <path d="M39.3938 22.7919C37.929 22.1816 37.1971 23.2799 37.1971 23.2799C37.9673 23.5746 38.6618 24.8671 38.4178 27.307C38.1739 29.7477 36.2212 34.0187 38.0515 37.3137C39.8817 40.6088 43.7958 41.1709 45.8623 37.3137C47.6927 33.8964 44.6416 25.2319 39.3938 22.7919ZM40.4493 35.2099C39.6628 35.2099 39.0251 34.5722 39.0251 33.7848C39.0251 32.999 39.6627 32.3614 40.4493 32.3614C41.2358 32.3614 41.8727 32.999 41.8727 33.7848C41.8727 34.5722 41.2358 35.2099 40.4493 35.2099Z" fill="currentColor"/>
</svg>