<svg xmlns="http://www.w3.org/2000/svg" width="34" height="42" viewBox="0 0 34 42" fill="none">
  <path d="M31.8077 10.9604L23.1347 2.07828C22.0768 1.0209 20.5962 0.386456 18.9039 0.386456H6.42309C3.24999 0.174967 0.5 2.92422 0.5 6.09641V35.7036C0.5 38.8757 3.03846 41.625 6.42309 41.625H27.5769C30.7501 41.625 33.5 39.0873 33.5 35.7036V14.9786C33.5 13.4982 32.8654 12.0178 31.8077 10.9604ZM10.6539 17.0934H17C17.8462 17.0934 18.6923 17.7278 18.6923 18.7853C18.6923 19.8425 18.0576 20.4769 17 20.4769H10.6539C9.80769 20.4769 8.96153 19.8425 8.96153 18.7853C8.96153 17.7278 9.80769 17.0934 10.6539 17.0934ZM23.3461 28.9363H10.6539C9.80769 28.9363 8.96153 28.3019 8.96153 27.2444C8.96153 26.187 9.59616 25.5525 10.6539 25.5525H23.3461C24.1923 25.5525 25.0384 26.187 25.0384 27.2444C25.0384 28.3019 24.1923 28.9363 23.3461 28.9363Z" fill="currentColor"/>
</svg>