<svg width="12" height="44" viewBox="0 0 12 44" fill="none" xmlns="http://www.w3.org/2000/svg">
<path d="M11.5653 0.818181L10.4943 29.8182H1.10227L0.03125 0.818181H11.5653ZM5.7983 43.6591C4.20549 43.6591 2.83925 43.103 1.69957 41.9908C0.573627 40.8648 0.0175191 39.4986 0.03125 37.892C0.0175191 36.3267 0.573627 34.9879 1.69957 33.8757C2.83925 32.7635 4.20549 32.2074 5.7983 32.2074C7.30871 32.2074 8.64063 32.7635 9.79403 33.8757C10.9612 34.9879 11.5516 36.3267 11.5653 37.892C11.5516 38.9631 11.2701 39.938 10.7209 40.8168C10.1854 41.6818 9.48509 42.3752 8.62003 42.897C7.75497 43.4051 6.81439 43.6591 5.7983 43.6591Z" fill="currentColor"/>
</svg>
