<svg xmlns="http://www.w3.org/2000/svg" width="30" height="21" viewBox="0 0 30 21" fill="none">
  <path d="M15 6.4091C13.915 6.4091 12.8745 6.8401 12.1073 7.6073C11.3401 8.37449 10.9091 9.41503 10.9091 10.5C10.9091 11.585 11.3401 12.6255 12.1073 13.3927C12.8745 14.1599 13.915 14.5909 15 14.5909C16.085 14.5909 17.1255 14.1599 17.8927 13.3927C18.6599 12.6255 19.0909 11.585 19.0909 10.5C19.0909 9.41503 18.6599 8.37449 17.8927 7.6073C17.1255 6.8401 16.085 6.4091 15 6.4091ZM15 17.3182C13.1917 17.3182 11.4575 16.5998 10.1788 15.3212C8.90016 14.0425 8.18182 12.3083 8.18182 10.5C8.18182 8.69171 8.90016 6.95748 10.1788 5.67883C11.4575 4.40017 13.1917 3.68183 15 3.68183C16.8083 3.68183 18.5425 4.40017 19.8212 5.67883C21.0998 6.95748 21.8182 8.69171 21.8182 10.5C21.8182 12.3083 21.0998 14.0425 19.8212 15.3212C18.5425 16.5998 16.8083 17.3182 15 17.3182ZM15 0.272736C8.18182 0.272736 2.35909 4.51364 0 10.5C2.35909 16.4864 8.18182 20.7273 15 20.7273C21.8182 20.7273 27.6409 16.4864 30 10.5C27.6409 4.51364 21.8182 0.272736 15 0.272736Z" fill="currentColor"/>
</svg>