<svg xmlns="http://www.w3.org/2000/svg" width="38" height="40" viewBox="0 0 38 40" fill="none">
  <path d="M30.294 2.31234L30.1898 2.43654L29.1307 1.54784C28.1201 0.699886 26.6125 0.831782 25.7646 1.84234L25.3221 2.36964L23.8486 1.13323C22.8381 0.285271 21.3295 0.418295 20.4825 1.42772L17.9121 4.49101C17.0642 5.50157 17.1979 7.00689 18.2085 7.85485L22.5714 11.5158L11.0903 25.1984L6.72743 21.5375C5.71687 20.6895 4.20834 20.8225 3.36133 21.832L0.790928 24.8952C-0.0560833 25.9047 0.075813 27.4123 1.08637 28.2602L2.55987 29.4966L2.11457 30.0273C1.26756 31.0367 1.39945 32.5443 2.41001 33.3923L3.46912 34.281L3.26732 34.5215C2.38999 35.567 2.51568 37.1233 3.5635 38.0025C4.61019 38.8808 6.16462 38.7343 7.04195 37.6888L7.24376 37.4483L8.30286 38.337C9.31455 39.1859 10.821 39.053 11.668 38.0436L12.1133 37.5129L13.5868 38.7493C14.5974 39.5973 16.1049 39.4654 16.952 38.456L19.5224 35.3927C20.3694 34.3832 20.2373 32.8736 19.2279 32.0266L14.8661 28.3666L26.3472 14.684L30.7089 18.344C31.7195 19.1919 33.2261 19.0612 34.0731 18.0517L36.6435 14.9884C37.4925 13.9767 37.3585 12.4694 36.349 11.6223L34.8756 10.3859L35.318 9.85863C36.1669 8.84695 36.0341 7.34049 35.0235 6.49253L33.9644 5.60384L34.0677 5.48076C34.9469 4.43295 34.8212 2.8767 33.7745 1.99842C32.7267 1.1192 31.1742 1.2634 30.294 2.31234Z" fill="currentColor"/>
</svg>
