<svg xmlns="http://www.w3.org/2000/svg" width="36" height="44" viewBox="0 0 36 44" fill="none">
  <path d="M34.9255 5.0566C34.7034 4.8201 29.404 -0.713213 21.9554 1.29179C18.6589 2.17902 16.3742 4.46649 14.9784 7.84838C14.2472 9.61993 12.0974 9.9027 9.69011 9.94636C9.01999 9.95858 8.35995 10.0845 7.86969 9.62741C7.37943 9.17029 7.20523 8.46734 7.42448 7.83402C7.86694 6.55562 8.43202 5.609 8.82929 5.03874C9.08809 4.66727 9.03328 4.16113 8.69982 3.8547L7.74907 2.9809L7.0246 2.3056C6.82047 2.11536 6.54015 2.02985 6.26456 2.07367C5.98897 2.11749 5.74911 2.2859 5.61383 2.53004C4.9086 3.80401 3.76929 5.94918 3.27568 6.89565C2.38738 8.5988 1.25754 11.3162 0.896142 14.2023C0.251523 19.3504 0.336871 22.4267 1.57496 25.6867C6.00485 37.3502 15.2937 45.054 22.1933 42.7317C29.093 40.4094 30.3303 25.5852 27.1486 16.1316C26.2223 13.3794 23.8067 11.8211 20.5207 10.8609C19.9991 10.7085 19.5756 10.3265 19.3696 9.82376C19.1638 9.32083 19.1972 8.75072 19.4626 8.27634C20.2017 6.95519 21.3336 5.85314 23.0581 5.38899C28.0159 4.05425 31.685 7.80761 31.8313 7.96014C32.633 8.81439 33.9755 8.85729 34.8301 8.05541C35.6847 7.25353 35.7273 5.91101 34.9255 5.0566ZM9.67163 31.7576C9.47636 31.9352 9.23115 32.0228 8.9864 32.0228C8.70959 32.0228 8.434 31.9107 8.23292 31.69C4.05313 27.0981 2.98604 19.856 2.94283 19.5498C2.86389 18.9932 3.25125 18.4777 3.80823 18.3988C4.36353 18.3188 4.87989 18.7069 4.95929 19.2634C4.96906 19.3323 5.9876 26.1977 9.73927 30.319C10.1178 30.735 10.0874 31.379 9.67163 31.7576ZM11.5319 35.1343C10.9383 35.1343 10.457 34.653 10.457 34.0594C10.457 33.4658 10.9383 32.9846 11.5319 32.9846C12.1255 32.9846 12.6068 33.4658 12.6068 34.0594C12.6068 34.653 12.1255 35.1343 11.5319 35.1343Z" fill="currentColor"/>
</svg>