<svg xmlns="http://www.w3.org/2000/svg" width="290" height="300" viewBox="0 0 290 300" fill="none">
  <path d="M149.831 38.6108C134.34 38.2906 118.937 41.0331 104.503 46.6815C90.0693 52.33 76.887 60.7737 65.7093 71.5303C54.5316 82.287 45.5775 95.1458 39.3585 109.372C33.1396 123.599 29.7776 138.914 29.4647 154.443C29.0812 170.646 31.8942 186.765 37.742 201.876C43.5899 216.986 52.3575 230.789 63.5415 242.494C74.7254 254.198 88.1055 263.573 102.914 270.08C117.722 276.587 133.666 280.097 149.831 280.411C166.587 280.731 183.242 277.738 198.844 271.605C214.446 265.471 228.689 256.316 240.761 244.663C252.833 233.01 262.496 219.088 269.199 203.69C275.902 188.293 279.514 171.722 279.827 154.926C278.142 39.0934 171.497 20.512 171.497 20.512C171.497 20.512 280.549 29.682 289.456 154.684C291.382 231.906 229.754 298.268 149.831 299.957C70.3892 301.888 2.02114 237.939 0.576743 155.167C-2.07132 71.9126 64.1302 1.4479 149.59 0C149.59 0 170.053 0 170.534 20.2707C170.534 39.576 149.831 38.6108 149.831 38.6108Z" fill="currentColor"/>
</svg>