<svg xmlns="http://www.w3.org/2000/svg" width="35" height="38" viewBox="0 0 35 38" fill="none">
<path fill-rule="evenodd" clip-rule="evenodd" d="M5.6875 16.2518V12.6562C5.6875 6.13239 10.9761 0.84375 17.5 0.84375C24.0238 0.84375 29.3125 6.13239 29.3125 12.6562V16.2518C31.2634 16.3976 32.5337 16.7653 33.4623 17.694C35 19.2317 35 21.7066 35 26.6562C35 31.6059 35 34.0808 33.4623 35.6185C31.9245 37.1562 29.4497 37.1562 24.5 37.1562H10.5C5.55025 37.1562 3.07538 37.1562 1.53769 35.6185C0 34.0808 0 31.6059 0 26.6562C0 21.7066 0 19.2317 1.53769 17.694C2.46629 16.7653 3.73669 16.3976 5.6875 16.2518ZM8.3125 12.6562C8.3125 7.58214 12.4259 3.46875 17.5 3.46875C22.5741 3.46875 26.6875 7.58214 26.6875 12.6562V16.1625C26.0173 16.1562 25.2901 16.1562 24.5 16.1562H10.5C9.70986 16.1562 8.98277 16.1562 8.3125 16.1625V12.6562ZM21 26.6562C21 28.5893 19.4331 30.1562 17.5 30.1562C15.5669 30.1562 14 28.5893 14 26.6562C14 24.7232 15.5669 23.1562 17.5 23.1562C19.4331 23.1562 21 24.7232 21 26.6562Z" fill="currentColor"/>
</svg>