<svg xmlns="http://www.w3.org/2000/svg" width="28" height="40" viewBox="0 0 28 40" fill="none">
  <path d="M25.7697 3.83496H22.6061C22.6061 2.56432 22.6061 1.34356 22.6061 0.336947C22.6061 0.220066 22.5454 0.111495 22.4458 0.0501975C22.3463 -0.0111005 22.2219 -0.016555 22.1176 0.0361717C20.5231 0.841487 17.4859 1.38564 13.9999 1.38564C10.514 1.38564 7.47689 0.841487 5.88224 0.0361717C5.77782 -0.016555 5.65354 -0.0113603 5.55393 0.0499377C5.45432 0.111236 5.39393 0.219936 5.39393 0.336947C5.39393 1.34369 5.39393 2.56445 5.39393 3.83496H2.2302C1.50553 3.83496 0.918137 4.42235 0.918137 5.14702V6.89324C0.918137 7.6179 1.50553 8.2053 2.2302 8.2053H5.39393C5.39393 9.09399 5.39393 9.90125 5.39393 10.5522C5.39393 11.0011 5.65367 11.4107 6.05977 11.6019C8.14753 12.5846 11.8024 12.861 13.9999 12.861C16.373 12.861 19.9153 12.5507 21.9387 11.6018C22.3459 11.4107 22.6061 11.0011 22.6061 10.5512C22.6061 9.89983 22.6061 9.09308 22.6061 8.20517H25.7698C26.4945 8.20517 27.0819 7.61777 27.0819 6.89311V5.14702C27.0817 4.42235 26.4943 3.83496 25.7697 3.83496ZM9.07077 9.15295C9.07077 9.691 8.6348 10.127 8.09676 10.127C7.55871 10.127 7.12274 9.691 7.12274 9.15295V4.37846C7.12274 3.84041 7.55871 3.40444 8.09676 3.40444C8.6348 3.40444 9.07077 3.84041 9.07077 4.37846V9.15295Z" fill="currentColor"/>
  <path d="M25.7697 17.3757H22.6061C22.6061 16.1051 22.6061 14.8843 22.6061 13.8777C22.6061 13.7608 22.5454 13.6523 22.4458 13.591C22.3463 13.5297 22.2219 13.5242 22.1176 13.5769C20.5231 14.3823 17.4859 14.9265 13.9999 14.9265C10.514 14.9265 7.47676 14.3824 5.88224 13.5769C5.77782 13.5242 5.65354 13.5294 5.55393 13.5907C5.45432 13.652 5.39393 13.7607 5.39393 13.8777C5.39393 14.8845 5.39393 16.1052 5.39393 17.3757H2.2302C1.50553 17.3757 0.918137 17.9631 0.918137 18.6878V20.434C0.918137 21.1587 1.50553 21.7461 2.2302 21.7461H5.39393C5.39393 22.6348 5.39393 23.442 5.39393 24.0929C5.39393 24.5419 5.65367 24.9515 6.05977 25.1427C8.14753 26.1254 11.8024 26.4017 13.9999 26.4017C16.373 26.4017 19.9153 26.0915 21.9387 25.1425C22.3459 24.9516 22.6061 24.5419 22.6061 24.0921C22.6061 23.4407 22.6061 22.634 22.6061 21.7461H25.7698C26.4945 21.7461 27.0819 21.1587 27.0819 20.434V18.6878C27.0817 17.9633 26.4943 17.3757 25.7697 17.3757ZM9.07077 22.6788C9.07077 23.2168 8.6348 23.6528 8.09676 23.6528C7.55871 23.6528 7.12274 23.2168 7.12274 22.6788V17.9042C7.12274 17.3661 7.55871 16.9302 8.09676 16.9302C8.6348 16.9302 9.07077 17.3661 9.07077 17.9042V22.6788Z" fill="currentColor"/>
  <path d="M25.7697 30.974H22.6061C22.6061 29.7034 22.6061 28.4826 22.6061 27.476C22.6061 27.3591 22.5454 27.2505 22.4458 27.1892C22.3463 27.1279 22.2219 27.1225 22.1176 27.1752C20.5231 27.9805 17.4859 28.5248 13.9999 28.5248C10.514 28.5248 7.47676 27.9807 5.88224 27.1752C5.77782 27.1225 5.65354 27.1277 5.55393 27.189C5.45432 27.2503 5.39393 27.359 5.39393 27.476C5.39393 28.4827 5.39393 29.7035 5.39393 30.974H2.2302C1.50553 30.974 0.918137 31.5614 0.918137 32.2861V34.0323C0.918137 34.7569 1.50553 35.3443 2.2302 35.3443H5.39393C5.39393 36.233 5.39393 37.0403 5.39393 37.6912C5.39393 38.1402 5.65367 38.5498 6.05977 38.7409C8.14753 39.7236 11.8024 40 13.9999 40C16.373 40 19.9153 39.6896 21.9387 38.7408C22.3459 38.5498 22.6061 38.1401 22.6061 37.6903C22.6061 37.0389 22.6061 36.2321 22.6061 35.3442H25.7698C26.4945 35.3442 27.0819 34.7568 27.0819 34.0321V32.2859C27.0817 31.5614 26.4943 30.974 25.7697 30.974ZM9.07077 36.6667C9.07077 37.2047 8.6348 37.6407 8.09676 37.6407C7.55871 37.6407 7.12274 37.2047 7.12274 36.6667V31.892C7.12274 31.354 7.55871 30.918 8.09676 30.918C8.6348 30.918 9.07077 31.354 9.07077 31.892V36.6667Z" fill="currentColor"/>
</svg>